<svg width="375" height="20" viewBox="0 0 375 20" fill="none" xmlns="http://www.w3.org/2000/svg">
<rect width="375" height="20" fill="white"/>
<path d="M167.279 5.33398C169.084 5.33398 170.654 6.61719 170.654 9.66406V9.67578C170.654 12.5234 169.371 14.2109 167.244 14.2109C165.691 14.2109 164.531 13.291 164.262 11.9961L164.25 11.9316H165.738L165.756 11.9902C165.979 12.582 166.5 12.9688 167.244 12.9688C168.586 12.9688 169.154 11.6562 169.219 10.0391C169.219 9.97461 169.225 9.91016 169.225 9.8457H169.107C168.797 10.5137 168.059 11.1055 166.898 11.1055C165.275 11.1055 164.139 9.92188 164.139 8.31641V8.30469C164.139 6.58789 165.445 5.33398 167.279 5.33398ZM167.273 9.94531C168.229 9.94531 168.961 9.25391 168.961 8.29883V8.28711C168.961 7.32031 168.229 6.56445 167.291 6.56445C166.359 6.56445 165.615 7.30859 165.615 8.25195V8.26367C165.615 9.24219 166.312 9.94531 167.273 9.94531ZM173.314 8.52148C172.781 8.52148 172.383 8.11133 172.383 7.5957C172.383 7.07422 172.781 6.66992 173.314 6.66992C173.854 6.66992 174.246 7.07422 174.246 7.5957C174.246 8.11133 173.854 8.52148 173.314 8.52148ZM173.314 12.8691C172.781 12.8691 172.383 12.4648 172.383 11.9434C172.383 11.4219 172.781 11.0176 173.314 11.0176C173.854 11.0176 174.246 11.4219 174.246 11.9434C174.246 12.4648 173.854 12.8691 173.314 12.8691ZM180.076 14V12.377H175.939V11.1406C177.035 9.23633 178.236 7.29102 179.385 5.54492H181.523V11.1289H182.66V12.377H181.523V14H180.076ZM177.346 11.1641H180.1V6.75195H180.012C179.145 8.07617 178.166 9.64062 177.346 11.0762V11.1641ZM186.164 14V7.0332H186.064L183.961 8.52148V7.09766L186.17 5.54492H187.676V14H186.164ZM192.756 14L195.756 5.54492H197.461L200.461 14H198.879L198.17 11.8145H195.041L194.338 14H192.756ZM196.559 7.11523L195.422 10.6484H197.795L196.658 7.11523H196.559ZM201.914 14V5.54492H203.648L206.191 12.0488H206.291L208.828 5.54492H210.562V14H209.203V7.98828H209.098L206.754 14H205.723L203.379 7.98828H203.279V14H201.914Z" fill="black"/>
<path opacity="0.35" fill-rule="evenodd" clip-rule="evenodd" d="M345.5 4.5H364.5C365.881 4.5 367 5.61929 367 7V13.5C367 14.8807 365.881 16 364.5 16H345.5C344.119 16 343 14.8807 343 13.5V7C343 5.61929 344.119 4.5 345.5 4.5ZM345.5 5.5C344.672 5.5 344 6.17157 344 7V13.5C344 14.3284 344.672 15 345.5 15H364.5C365.328 15 366 14.3284 366 13.5V7C366 6.17157 365.328 5.5 364.5 5.5H345.5Z" fill="black"/>
<path opacity="0.4" fill-rule="evenodd" clip-rule="evenodd" d="M368 7.7998C368.89 8.25498 369.5 9.18128 369.5 10.2499C369.5 11.3186 368.89 12.2449 368 12.7001V7.7998Z" fill="black"/>
<path fill-rule="evenodd" clip-rule="evenodd" d="M346 6.5H364C364.552 6.5 365 6.94772 365 7.5V13C365 13.5523 364.552 14 364 14H346C345.448 14 345 13.5523 345 13V7.5C345 6.94772 345.448 6.5 346 6.5Z" fill="black"/>
<path d="M311.219 14.3V7.01678H311.125L308.975 8.57538V7.4621L311.225 5.84491H312.273V14.3H311.219ZM317.547 14.4992C315.678 14.4992 314.564 12.7941 314.564 10.0754V10.0637C314.564 7.34491 315.678 5.64569 317.547 5.64569C319.416 5.64569 320.541 7.34491 320.541 10.0637V10.0754C320.541 12.7941 319.416 14.4992 317.547 14.4992ZM317.547 13.5793C318.76 13.5793 319.48 12.2316 319.48 10.0754V10.0637C319.48 7.90741 318.76 6.57147 317.547 6.57147C316.334 6.57147 315.625 7.90741 315.625 10.0637V10.0754C315.625 12.2316 316.334 13.5793 317.547 13.5793ZM325.105 14.4992C323.236 14.4992 322.123 12.7941 322.123 10.0754V10.0637C322.123 7.34491 323.236 5.64569 325.105 5.64569C326.975 5.64569 328.1 7.34491 328.1 10.0637V10.0754C328.1 12.7941 326.975 14.4992 325.105 14.4992ZM325.105 13.5793C326.318 13.5793 327.039 12.2316 327.039 10.0754V10.0637C327.039 7.90741 326.318 6.57147 325.105 6.57147C323.893 6.57147 323.184 7.90741 323.184 10.0637V10.0754C323.184 12.2316 323.893 13.5793 325.105 13.5793ZM331.41 10.2922C330.332 10.2922 329.682 9.41327 329.682 8.01288V8.00702C329.682 6.60663 330.332 5.73358 331.41 5.73358C332.488 5.73358 333.145 6.60663 333.145 8.00702V8.01288C333.145 9.41327 332.488 10.2922 331.41 10.2922ZM332.043 14.3H331.094L336.848 5.84491H337.797L332.043 14.3ZM331.41 9.59491C331.99 9.59491 332.33 9.00311 332.33 8.01288V8.00702C332.33 7.01678 331.99 6.43085 331.41 6.43085C330.83 6.43085 330.496 7.01678 330.496 8.00702V8.01288C330.496 9.00311 330.83 9.59491 331.41 9.59491ZM337.469 14.4113C336.391 14.4113 335.74 13.5324 335.74 12.132V12.1262C335.74 10.7258 336.391 9.85272 337.469 9.85272C338.547 9.85272 339.203 10.7258 339.203 12.1262V12.132C339.203 13.5324 338.547 14.4113 337.469 14.4113ZM337.469 13.7141C338.049 13.7141 338.389 13.1223 338.389 12.132V12.1262C338.389 11.1359 338.049 10.55 337.469 10.55C336.889 10.55 336.555 11.1359 336.555 12.1262V12.132C336.555 13.1223 336.889 13.7141 337.469 13.7141Z" fill="black"/>
<path fill-rule="evenodd" clip-rule="evenodd" d="M281.269 7.69225C281.1 7.46378 281 7.18107 281 6.875C281 6.11561 281.616 5.5 282.375 5.5C282.647 5.5 282.901 5.57923 283.115 5.7159C282.344 6.20596 281.707 6.88693 281.269 7.69225ZM290.37 10.255C290.37 12.6712 288.411 14.63 285.995 14.63C283.579 14.63 281.62 12.6712 281.62 10.255C281.62 7.83875 283.579 5.88 285.995 5.88C288.411 5.88 290.37 7.83875 290.37 10.255ZM286.38 10.875H284.25V10.12H285.63V7.5H286.38V10.875ZM289.625 5.5C289.35 5.5 289.095 5.58046 288.88 5.71909C289.651 6.21049 290.288 6.89306 290.725 7.70001C290.898 7.4702 291 7.18455 291 6.875C291 6.11561 290.384 5.5 289.625 5.5Z" fill="black"/>
<path fill-rule="evenodd" clip-rule="evenodd" d="M300 9.98336V9.97118L297.043 7.28363L297.716 6.54369L300 8.61972V4.11972L303.993 7.75L301.518 10L303.993 12.25L300 15.8803V11.3348L297.716 13.4108L297.043 12.6709L300 9.98336ZM301 9.11972L302.506 7.75L301 6.38027V9.11972ZM302.506 12.25L301 13.6197V10.8803L302.506 12.25Z" fill="black"/>
<g clip-path="url(#clip0_653_3412)">
<path opacity="0.25" fill-rule="evenodd" clip-rule="evenodd" d="M20.5 5H21.5C22.0523 5 22.5 5.44772 22.5 6V14C22.5 14.5523 22.0523 15 21.5 15H20.5C19.9477 15 19.5 14.5523 19.5 14V6C19.5 5.44772 19.9477 5 20.5 5Z" fill="black"/>
<path fill-rule="evenodd" clip-rule="evenodd" d="M17 7H16C15.4477 7 15 7.44772 15 8V14C15 14.5523 15.4477 15 16 15H17C17.5523 15 18 14.5523 18 14V8C18 7.44772 17.5523 7 17 7ZM11.5 9H12.5C13.0523 9 13.5 9.44772 13.5 10V14C13.5 14.5523 13.0523 15 12.5 15H11.5C10.9477 15 10.5 14.5523 10.5 14V10C10.5 9.44772 10.9477 9 11.5 9ZM7 10.5H8C8.55228 10.5 9 10.9477 9 11.5V14C9 14.5523 8.55228 15 8 15H7C6.44772 15 6 14.5523 6 14V11.5C6 10.9477 6.44772 10.5 7 10.5Z" fill="black"/>
<path d="M30.0781 14V5.54492H35.2109V6.49414H31.1328V9.40039H34.877V10.3379H31.1328V14H30.0781ZM37.3055 6.46484C36.9187 6.46484 36.6023 6.14844 36.6023 5.76172C36.6023 5.375 36.9187 5.05859 37.3055 5.05859C37.6922 5.05859 38.0086 5.375 38.0086 5.76172C38.0086 6.14844 37.6922 6.46484 37.3055 6.46484ZM36.7898 14V7.68359H37.8094V14H36.7898ZM42.2828 16.2266C40.7594 16.2266 39.7867 15.541 39.6285 14.5039L39.6402 14.498H40.6949L40.7008 14.5039C40.8121 14.9844 41.3746 15.3242 42.2828 15.3242C43.4137 15.3242 44.0875 14.791 44.0875 13.8594V12.582H43.9937C43.5953 13.2793 42.8805 13.6719 42.0133 13.6719C40.3785 13.6719 39.3648 12.4062 39.3648 10.6367V10.625C39.3648 8.85547 40.3844 7.57227 42.0367 7.57227C42.9273 7.57227 43.6187 8.01172 44.0055 8.72656H44.0758V7.68359H45.0953V13.9121C45.0953 15.3242 44.0055 16.2266 42.2828 16.2266ZM42.2359 12.7695C43.4078 12.7695 44.1109 11.8906 44.1109 10.6367V10.625C44.1109 9.37109 43.402 8.47461 42.2359 8.47461C41.0641 8.47461 40.4078 9.37109 40.4078 10.625V10.6367C40.4078 11.8906 41.0641 12.7695 42.2359 12.7695ZM46.9438 14V7.68359H47.9633V8.64453H48.057C48.3383 7.96484 48.9359 7.57227 49.7621 7.57227C50.6176 7.57227 51.2152 8.02344 51.5082 8.67969H51.602C51.9418 8.01172 52.6625 7.57227 53.5355 7.57227C54.8246 7.57227 55.5453 8.31055 55.5453 9.63477V14H54.5258V9.86914C54.5258 8.9375 54.098 8.47461 53.2074 8.47461C52.3285 8.47461 51.7484 9.13672 51.7484 9.93945V14H50.7289V9.71094C50.7289 8.96094 50.2133 8.47461 49.4164 8.47461C48.5902 8.47461 47.9633 9.19531 47.9633 10.0859V14H46.9438ZM59.0695 14.1113C57.8684 14.1113 56.9602 13.3848 56.9602 12.2363V12.2246C56.9602 11.0996 57.7922 10.4492 59.2629 10.3613L61.0734 10.25V9.67578C61.0734 8.89648 60.5988 8.47461 59.6555 8.47461C58.8996 8.47461 58.4016 8.75586 58.2375 9.24805L58.2316 9.26562H57.2121L57.218 9.23047C57.382 8.24023 58.343 7.57227 59.6906 7.57227C61.2316 7.57227 62.093 8.36328 62.093 9.67578V14H61.0734V13.0684H60.9797C60.5812 13.7422 59.9191 14.1113 59.0695 14.1113ZM58.0031 12.2129C58.0031 12.8516 58.548 13.2266 59.2805 13.2266C60.3176 13.2266 61.0734 12.5469 61.0734 11.6445V11.0703L59.3859 11.1758C58.425 11.2344 58.0031 11.5742 58.0031 12.2012V12.2129Z" fill="black"/>
<path fill-rule="evenodd" clip-rule="evenodd" d="M80.9828 7.52294C79.0717 5.89057 76.6574 5 74.1327 5C71.6006 5 69.1795 5.89589 67.2661 7.53708L67.1036 7.67646C66.9722 7.78918 66.9647 7.98954 67.0873 8.11176L68.2142 9.23557C68.3236 9.34466 68.4985 9.3521 68.6168 9.2527L68.7564 9.13541C70.2633 7.86943 72.1552 7.18035 74.1327 7.18035C76.1035 7.18035 77.9894 7.86472 79.494 9.12283L79.6336 9.23952C79.7519 9.33847 79.9264 9.33084 80.0356 9.22195L81.1627 8.09797C81.2855 7.97558 81.2777 7.77488 81.1459 7.66228L80.9828 7.52294ZM74.1327 8.46979C75.7236 8.46979 77.251 8.99754 78.4953 9.97486L78.6711 10.113C78.8113 10.2231 78.8236 10.4306 78.6974 10.5564L77.5667 11.6841C77.4621 11.7884 77.2966 11.8003 77.178 11.7122L77.0401 11.6098C76.1997 10.9852 75.1864 10.6501 74.1327 10.6501C73.0726 10.6501 72.0533 10.9893 71.2101 11.6211L71.0721 11.7245C70.9535 11.8133 70.7874 11.8016 70.6825 11.697L69.5522 10.5698C69.4262 10.4442 69.4382 10.2373 69.5777 10.1269L69.7526 9.98871C70.9998 9.00267 72.5342 8.46979 74.1327 8.46979ZM74.1327 11.9396C74.7722 11.9396 75.3936 12.1076 75.9411 12.4281L76.163 12.5579C76.3311 12.6563 76.3607 12.8867 76.2228 13.0242L74.3287 14.913C74.2124 15.029 74.0238 15.029 73.9074 14.913L72.0255 13.0363C71.8882 12.8994 71.9169 12.6702 72.0836 12.5711L72.303 12.4406C72.8555 12.1121 73.4848 11.9396 74.1327 11.9396Z" fill="black"/>
</g>
<defs>
<clipPath id="clip0_653_3412">
<rect width="78" height="16" fill="white" transform="translate(4 3)"/>
</clipPath>
</defs>
</svg>
